<svg width="100" height="100" viewBox="0 0 100 100" fill="none" xmlns="http://www.w3.org/2000/svg">
<path d="M49.9997 8.33325C48.8946 8.33325 47.8348 8.77224 47.0534 9.55364C46.272 10.335 45.833 11.3948 45.833 12.4999V20.8333C45.833 21.9383 46.272 22.9981 47.0534 23.7795C47.8348 24.5609 48.8946 24.9999 49.9997 24.9999C51.1047 24.9999 52.1646 24.5609 52.946 23.7795C53.7274 22.9981 54.1663 21.9383 54.1663 20.8333V12.4999C54.1663 11.3948 53.7274 10.335 52.946 9.55364C52.1646 8.77224 51.1047 8.33325 49.9997 8.33325V8.33325ZM87.4997 45.8333H79.1663C78.0613 45.8333 77.0015 46.2722 76.2201 47.0536C75.4387 47.835 74.9997 48.8948 74.9997 49.9999C74.9997 51.105 75.4387 52.1648 76.2201 52.9462C77.0015 53.7276 78.0613 54.1666 79.1663 54.1666H87.4997C88.6047 54.1666 89.6646 53.7276 90.446 52.9462C91.2274 52.1648 91.6663 51.105 91.6663 49.9999C91.6663 48.8948 91.2274 47.835 90.446 47.0536C89.6646 46.2722 88.6047 45.8333 87.4997 45.8333ZM24.9997 49.9999C24.9997 48.8948 24.5607 47.835 23.7793 47.0536C22.9979 46.2722 21.9381 45.8333 20.833 45.8333H12.4997C11.3946 45.8333 10.3348 46.2722 9.5534 47.0536C8.77199 47.835 8.33301 48.8948 8.33301 49.9999C8.33301 51.105 8.77199 52.1648 9.5534 52.9462C10.3348 53.7276 11.3946 54.1666 12.4997 54.1666H20.833C21.9381 54.1666 22.9979 53.7276 23.7793 52.9462C24.5607 52.1648 24.9997 51.105 24.9997 49.9999ZM25.9163 20.8333C25.1041 20.0652 24.0201 19.6513 22.9027 19.6826C21.7853 19.7138 20.726 20.1877 19.958 20.9999C19.19 21.8121 18.7761 22.8962 18.8073 24.0136C18.8386 25.131 19.3124 26.1902 20.1247 26.9583L26.1247 32.7499C26.5273 33.1387 27.0042 33.4424 27.5268 33.6428C28.0494 33.8433 28.607 33.9364 29.1663 33.9166C29.7276 33.9144 30.2827 33.7989 30.7982 33.577C31.3137 33.355 31.7791 33.0312 32.1663 32.6249C32.9424 31.8442 33.378 30.7882 33.378 29.6874C33.378 28.5866 32.9424 27.5306 32.1663 26.7499L25.9163 20.8333ZM70.833 33.9166C71.9058 33.9123 72.9356 33.4944 73.708 32.7499L79.708 26.9583C80.44 26.1935 80.8534 25.1788 80.8643 24.1202C80.8752 23.0617 80.4827 22.0387 79.7667 21.259C79.0506 20.4793 78.0647 20.0014 77.009 19.9223C75.9534 19.8432 74.9072 20.1689 74.083 20.8333L68.083 26.7499C67.307 27.5306 66.8714 28.5866 66.8714 29.6874C66.8714 30.7882 67.307 31.8442 68.083 32.6249C68.8044 33.3862 69.7864 33.8475 70.833 33.9166ZM49.9997 74.9999C48.8946 74.9999 47.8348 75.4389 47.0534 76.2203C46.272 77.0017 45.833 78.0615 45.833 79.1666V87.4999C45.833 88.605 46.272 89.6648 47.0534 90.4462C47.8348 91.2276 48.8946 91.6666 49.9997 91.6666C51.1047 91.6666 52.1646 91.2276 52.946 90.4462C53.7274 89.6648 54.1663 88.605 54.1663 87.4999V79.1666C54.1663 78.0615 53.7274 77.0017 52.946 76.2203C52.1646 75.4389 51.1047 74.9999 49.9997 74.9999ZM73.8747 67.2499C73.079 66.4819 72.0109 66.0614 70.9052 66.0809C69.7995 66.1005 68.7469 66.5584 67.9788 67.3541C67.2108 68.1497 66.7903 69.2179 66.8099 70.3236C66.8294 71.4293 67.2874 72.4819 68.083 73.2499L74.083 79.1666C74.8554 79.9111 75.8852 80.329 76.958 80.3333C77.5163 80.3365 78.0696 80.2275 78.5849 80.0128C79.1003 79.7981 79.5672 79.482 79.958 79.0832C80.3486 78.6959 80.6585 78.2351 80.8701 77.7273C81.0816 77.2196 81.1905 76.675 81.1905 76.1249C81.1905 75.5749 81.0816 75.0303 80.8701 74.5225C80.6585 74.0148 80.3486 73.5539 79.958 73.1666L73.8747 67.2499ZM26.1247 67.2499L20.1247 73.0416C19.7341 73.4289 19.4242 73.8898 19.2126 74.3975C19.0011 74.9053 18.8922 75.4499 18.8922 75.9999C18.8922 76.55 19.0011 77.0946 19.2126 77.6023C19.4242 78.1101 19.7341 78.5709 20.1247 78.9583C20.5155 79.357 20.9824 79.6731 21.4978 79.8878C22.0131 80.1025 22.5664 80.2115 23.1247 80.2082C24.1518 80.217 25.146 79.846 25.9163 79.1666L31.9163 73.3749C32.712 72.6069 33.17 71.5543 33.1895 70.4486C33.209 69.3429 32.7885 68.2747 32.0205 67.4791C31.2525 66.6834 30.1998 66.2255 29.0942 66.2059C27.9885 66.1864 26.9203 66.6069 26.1247 67.3749V67.2499Z" fill="#661F78"/>
</svg>
