<svg width="155" height="155" viewBox="0 0 155 155" fill="none" xmlns="http://www.w3.org/2000/svg">
<ellipse cx="77.8535" cy="78.4947" rx="52" ry="51.4947" fill="#762E88"/>
<ellipse cx="77.8535" cy="78.4947" rx="52" ry="51.4947" fill="#762E88"/>
<g filter="url(#filter0_d)">
<ellipse cx="78" cy="78.4843" rx="53" ry="52.4843" fill="url(#paint0_linear)"/>
</g>
<g filter="url(#filter1_d)">
<path fill-rule="evenodd" clip-rule="evenodd" d="M63.4441 48.6099V58.2529L73.1819 58.2529V63.0744H63.4441V72.7175H58.5752L58.5752 63.0744H48.8374V58.2529H58.5752V48.6099H63.4441ZM108.169 58.9688L83.8242 58.9687V62.9687L108.169 62.9688V58.9688ZM60.8953 91.6653L53.9638 84.9688L50.4981 88.317L57.4296 95.0136L50.498 101.71L53.9638 105.058L60.8953 98.3618L67.8266 105.058L71.2923 101.71L64.361 95.0136L71.2923 88.3172L67.8266 84.969L60.8953 91.6653ZM98.6164 85.0938C98.6164 86.8195 97.1922 88.2188 95.4354 88.2188C93.6786 88.2188 92.2545 86.8195 92.2545 85.0938C92.2545 83.368 93.6786 81.9688 95.4354 81.9688C97.1922 81.9688 98.6164 83.368 98.6164 85.0938ZM106.039 92.3854V96.5521H84.8323V92.3854H106.039ZM98.6164 103.844C98.6164 105.57 97.1922 106.969 95.4354 106.969C93.6786 106.969 92.2545 105.57 92.2545 103.844C92.2545 102.118 93.6786 100.719 95.4354 100.719C97.1922 100.719 98.6164 102.118 98.6164 103.844Z" fill="#C4C4C4"/>
</g>
<defs>
<filter id="filter0_d" x="25" y="26" width="124" height="122.969" filterUnits="userSpaceOnUse" color-interpolation-filters="sRGB">
<feFlood flood-opacity="0" result="BackgroundImageFix"/>
<feColorMatrix in="SourceAlpha" type="matrix" values="0 0 0 0 0 0 0 0 0 0 0 0 0 0 0 0 0 0 127 0"/>
<feOffset dx="10" dy="10"/>
<feGaussianBlur stdDeviation="4"/>
<feColorMatrix type="matrix" values="0 0 0 0 0 0 0 0 0 0 0 0 0 0 0 0 0 0 0.75 0"/>
<feBlend mode="normal" in2="BackgroundImageFix" result="effect1_dropShadow"/>
<feBlend mode="normal" in="SourceGraphic" in2="effect1_dropShadow" result="shape"/>
</filter>
<filter id="filter1_d" x="44.8374" y="48.6099" width="67.3313" height="66.3589" filterUnits="userSpaceOnUse" color-interpolation-filters="sRGB">
<feFlood flood-opacity="0" result="BackgroundImageFix"/>
<feColorMatrix in="SourceAlpha" type="matrix" values="0 0 0 0 0 0 0 0 0 0 0 0 0 0 0 0 0 0 127 0"/>
<feOffset dy="4"/>
<feGaussianBlur stdDeviation="2"/>
<feColorMatrix type="matrix" values="0 0 0 0 0 0 0 0 0 0 0 0 0 0 0 0 0 0 0.25 0"/>
<feBlend mode="normal" in2="BackgroundImageFix" result="effect1_dropShadow"/>
<feBlend mode="normal" in="SourceGraphic" in2="effect1_dropShadow" result="shape"/>
</filter>
<linearGradient id="paint0_linear" x1="25" y1="84.5141" x2="126.969" y2="84.5141" gradientUnits="userSpaceOnUse">
<stop stop-color="#040404"/>
<stop offset="1" stop-color="#3A3A3A"/>
</linearGradient>
</defs>
</svg>
