<svg width="155" height="155" viewBox="0 0 155 155" fill="none" xmlns="http://www.w3.org/2000/svg">
<ellipse cx="77.8535" cy="78.4947" rx="52" ry="51.4947" fill="#762E88"/>
<g filter="url(#filter0_d)">
<ellipse cx="78" cy="78.4843" rx="53" ry="52.4843" fill="url(#paint0_linear)"/>
</g>
<path fill-rule="evenodd" clip-rule="evenodd" d="M70.9394 56.6401C70.9394 52.851 74.0111 49.7793 77.8002 49.7793C81.5893 49.7793 84.661 52.851 84.661 56.6401V57.656C87.8103 58.6811 90.645 60.3926 92.9847 62.612L94.5916 61.6932C97.8571 59.8263 102.04 60.947 103.935 64.1966C105.829 67.4462 104.718 71.594 101.452 73.4609L99.4377 74.6128C99.6461 75.8158 99.7546 77.0525 99.7546 78.3143C99.7546 79.5293 99.654 80.721 99.4605 81.8817L101.554 83.0787C104.82 84.9457 105.931 89.0935 104.036 92.3431C102.142 95.5926 97.9588 96.7134 94.6933 94.8464L93.0811 93.9247C90.7231 96.1887 87.8537 97.9334 84.661 98.9726V100.668C84.661 104.457 81.5893 107.529 77.8002 107.529C74.0111 107.529 70.9394 104.457 70.9394 100.668V98.9728C68.2816 98.1078 65.8479 96.7539 63.7467 95.0185L62.7737 95.5748C59.5082 97.4418 55.3251 96.321 53.4306 93.0715C51.536 89.8219 52.6473 85.6741 55.9128 83.8071L56.4707 83.4882C56.0619 81.83 55.8452 80.0972 55.8452 78.3143C55.8452 76.4852 56.0733 74.7089 56.5029 73.0117L56.0145 72.7325C52.7491 70.8655 51.6377 66.7178 53.5323 63.4682C55.4268 60.2186 59.6099 59.0978 62.8754 60.9648L63.8524 61.5234C65.9294 59.8296 68.3261 58.5063 70.9394 57.6558V56.6401ZM77.7995 86.8075C82.5359 86.8075 86.3755 83.0052 86.3755 78.3149C86.3755 73.6245 82.5359 69.8223 77.7995 69.8223C73.0631 69.8223 69.2234 73.6245 69.2234 78.3149C69.2234 83.0052 73.0631 86.8075 77.7995 86.8075Z" fill="#C4C4C4"/>
<defs>
<filter id="filter0_d" x="25" y="26" width="124" height="122.969" filterUnits="userSpaceOnUse" color-interpolation-filters="sRGB">
<feFlood flood-opacity="0" result="BackgroundImageFix"/>
<feColorMatrix in="SourceAlpha" type="matrix" values="0 0 0 0 0 0 0 0 0 0 0 0 0 0 0 0 0 0 127 0"/>
<feOffset dx="10" dy="10"/>
<feGaussianBlur stdDeviation="4"/>
<feColorMatrix type="matrix" values="0 0 0 0 0 0 0 0 0 0 0 0 0 0 0 0 0 0 0.75 0"/>
<feBlend mode="normal" in2="BackgroundImageFix" result="effect1_dropShadow"/>
<feBlend mode="normal" in="SourceGraphic" in2="effect1_dropShadow" result="shape"/>
</filter>
<linearGradient id="paint0_linear" x1="25" y1="84.5141" x2="126.969" y2="84.5141" gradientUnits="userSpaceOnUse">
<stop stop-color="#040404"/>
<stop offset="1" stop-color="#3A3A3A"/>
</linearGradient>
</defs>
</svg>
