<svg width="40" height="40" viewBox="0 0 40 40" fill="none" xmlns="http://www.w3.org/2000/svg">
<path d="M20 0C25.3043 0 30.3914 2.10714 34.1421 5.85786C37.8929 9.60859 40 14.6957 40 20C40 25.3043 37.8929 30.3914 34.1421 34.1421C30.3914 37.8929 25.3043 40 20 40C14.6957 40 9.60859 37.8929 5.85786 34.1421C2.10714 30.3914 0 25.3043 0 20C0 14.6957 2.10714 9.60859 5.85786 5.85786C9.60859 2.10714 14.6957 0 20 0V0ZM20 2.5C17.7019 2.5 15.4262 2.95265 13.303 3.83211C11.1798 4.71157 9.25066 6.00061 7.62563 7.62563C6.00061 9.25066 4.71157 11.1798 3.83211 13.303C2.95265 15.4262 2.5 17.7019 2.5 20C2.5 22.2981 2.95265 24.5738 3.83211 26.697C4.71157 28.8202 6.00061 30.7493 7.62563 32.3744C9.25066 33.9994 11.1798 35.2884 13.303 36.1679C15.4262 37.0474 17.7019 37.5 20 37.5C24.6413 37.5 29.0925 35.6563 32.3744 32.3744C35.6563 29.0925 37.5 24.6413 37.5 20C37.5 15.3587 35.6563 10.9075 32.3744 7.62563C29.0925 4.34374 24.6413 2.5 20 2.5ZM20 26.25C20.4973 26.25 20.9742 26.4475 21.3258 26.7992C21.6775 27.1508 21.875 27.6277 21.875 28.125C21.875 28.6223 21.6775 29.0992 21.3258 29.4508C20.9742 29.8025 20.4973 30 20 30C19.5027 30 19.0258 29.8025 18.6742 29.4508C18.3225 29.0992 18.125 28.6223 18.125 28.125C18.125 27.6277 18.3225 27.1508 18.6742 26.7992C19.0258 26.4475 19.5027 26.25 20 26.25V26.25ZM20 10C20.2926 9.9999 20.5759 10.1024 20.8006 10.2897C21.0254 10.477 21.1773 10.7372 21.23 11.025L21.25 11.25V22.5C21.2506 22.8124 21.1342 23.1136 20.9237 23.3445C20.7133 23.5753 20.424 23.719 20.1129 23.7472C19.8019 23.7754 19.4915 23.6861 19.2429 23.4969C18.9944 23.3078 18.8257 23.0324 18.77 22.725L18.75 22.5V11.25C18.75 10.9185 18.8817 10.6005 19.1161 10.3661C19.3505 10.1317 19.6685 10 20 10Z" fill="#AAAAAA"/>
</svg>
