<svg width="155" height="155" viewBox="0 0 155 155" fill="none" xmlns="http://www.w3.org/2000/svg">
<ellipse cx="76.8535" cy="78.4947" rx="52" ry="51.4947" fill="#762E88"/>
<g filter="url(#filter0_d)">
<ellipse cx="77" cy="78.485" rx="53" ry="52.485" fill="url(#paint0_linear)"/>
</g>
<path fill-rule="evenodd" clip-rule="evenodd" d="M102.585 54.1957L85.5569 53.6607C85.5031 53.6593 85.45 53.6736 85.4044 53.7019C85.3587 53.7302 85.3225 53.7711 85.3002 53.8197C85.2778 53.8683 85.2704 53.9222 85.2787 53.975C85.2871 54.0277 85.3109 54.0768 85.3472 54.1162L91.3753 60.7368C86.8711 64.2052 81.9143 67.0758 76.6291 69.2652C68.7006 72.5496 60.192 74.2356 51.5996 74.2246V80.3057C60.9792 80.3173 70.2678 78.4811 78.926 74.9037C84.877 72.4449 90.4488 69.1972 95.4932 65.2594L101.176 71.5005C101.212 71.5403 101.259 71.5687 101.312 71.582C101.364 71.5954 101.419 71.5931 101.47 71.5755C101.521 71.5578 101.566 71.5256 101.598 71.4829C101.631 71.4402 101.65 71.3889 101.654 71.3354L102.85 54.5014C102.855 54.4637 102.851 54.4255 102.84 54.3891C102.829 54.3528 102.811 54.3191 102.786 54.2903C102.761 54.2615 102.73 54.2382 102.695 54.2219C102.661 54.2056 102.623 54.1967 102.585 54.1957ZM59.529 83.8675V103.698H53.3381V84.2833C55.4254 84.2344 57.488 84.0907 59.529 83.8675ZM74.2482 103.698V80.3759C72.2257 81.0649 70.1621 81.6621 68.0574 82.1676V103.698H74.2482ZM89.1612 73.7782V103.698H82.9734V77.1963C85.0923 76.1601 87.1574 75.0193 89.1612 73.7782Z" fill="#C4C4C4"/>
<defs>
<filter id="filter0_d" x="24" y="26" width="124" height="122.97" filterUnits="userSpaceOnUse" color-interpolation-filters="sRGB">
<feFlood flood-opacity="0" result="BackgroundImageFix"/>
<feColorMatrix in="SourceAlpha" type="matrix" values="0 0 0 0 0 0 0 0 0 0 0 0 0 0 0 0 0 0 127 0"/>
<feOffset dx="10" dy="10"/>
<feGaussianBlur stdDeviation="4"/>
<feColorMatrix type="matrix" values="0 0 0 0 0 0 0 0 0 0 0 0 0 0 0 0 0 0 0.75 0"/>
<feBlend mode="normal" in2="BackgroundImageFix" result="effect1_dropShadow"/>
<feBlend mode="normal" in="SourceGraphic" in2="effect1_dropShadow" result="shape"/>
</filter>
<linearGradient id="paint0_linear" x1="24" y1="84.5148" x2="125.969" y2="84.5148" gradientUnits="userSpaceOnUse">
<stop stop-color="#040404"/>
<stop offset="1" stop-color="#3A3A3A"/>
</linearGradient>
</defs>
</svg>
